<?xml version="1.0" encoding="UTF-8" standalone="no"?>
<!DOCTYPE svg PUBLIC "-//W3C//DTD SVG 1.1//EN" "http://www.w3.org/Graphics/SVG/1.1/DTD/svg11.dtd">
<!-- Created with Vectornator (http://vectornator.io/) -->
<svg height="100%" stroke-miterlimit="10" style="fill-rule:nonzero;clip-rule:evenodd;stroke-linecap:round;stroke-linejoin:round;" version="1.1" viewBox="0 0 16 16" width="100%" xml:space="preserve" xmlns="http://www.w3.org/2000/svg" xmlns:vectornator="http://vectornator.io" xmlns:xlink="http://www.w3.org/1999/xlink">
<defs/>
<clipPath id="ArtboardFrame">
<rect height="16" width="16" x="0" y="0"/>
</clipPath>
<g clip-path="url(#ArtboardFrame)" id="Untitled" vectornator:layerName="Untitled">
<path d="M13.545 2.907C12.5075 2.43087 11.4127 2.09104 10.288 1.896C10.2671 1.89248 10.2463 1.9025 10.236 1.921C10.095 2.171 9.939 2.498 9.83 2.754C8.61761 2.57001 7.38439 2.57001 6.172 2.754C6.05041 2.46882 5.91286 2.19071 5.76 1.921C5.7495 1.90272 5.72883 1.89279 5.708 1.896C4.583 2.09 3.488 2.43 2.451 2.907C2.44213 2.91039 2.4347 2.91675 2.43 2.925C0.356 6.024-0.213 9.047 0.066 12.032C0.067 12.046 0.076 12.06 0.087 12.069C1.29472 12.9636 2.64559 13.6467 4.082 14.089C4.10281 14.0956 4.12548 14.0879 4.138 14.07C4.446 13.65 4.72 13.207 4.956 12.741C4.9661 12.7213 4.96203 12.6973 4.946 12.682C4.94083 12.6771 4.9347 12.6734 4.928 12.671C4.49716 12.5054 4.0799 12.3065 3.68 12.076C3.6568 12.0629 3.648 12.0338 3.66 12.01C3.6634 12.0026 3.66855 11.996 3.675 11.991C3.759 11.928 3.843 11.862 3.923 11.796C3.9374 11.7844 3.95701 11.7817 3.974 11.789C6.593 12.985 9.428 12.985 12.015 11.789C12.0326 11.7814 12.053 11.7841 12.068 11.796C12.148 11.862 12.232 11.928 12.316 11.991C12.3298 12.0011 12.3377 12.0175 12.3369 12.0346C12.336 12.0517 12.3267 12.0672 12.312 12.076C11.913 12.3086 11.4952 12.5073 11.063 12.67C11.049 12.6751 11.0381 12.686 11.033 12.7C11.0283 12.7135 11.0294 12.7283 11.036 12.741C11.276 13.206 11.551 13.65 11.853 14.07C11.8655 14.0879 11.8882 14.0956 11.909 14.089C13.3478 13.648 14.7009 12.9649 15.91 12.069C15.9223 12.0605 15.93 12.0469 15.931 12.032C16.265 8.581 15.372 5.583 13.565 2.926C13.5613 2.91713 13.5541 2.91022 13.545 2.907ZM5.347 10.214C4.558 10.214 3.909 9.49 3.909 8.602C3.909 7.713 4.546 6.989 5.347 6.989C6.154 6.989 6.797 7.719 6.785 8.602C6.785 9.49 6.148 10.214 5.347 10.214ZM10.663 10.214C9.875 10.214 9.225 9.49 9.225 8.602C9.225 7.713 9.862 6.989 10.663 6.989C11.47 6.989 12.114 7.719 12.101 8.602C12.101 9.49 11.47 10.214 10.663 10.214Z" fill="black" fill-rule="nonzero" opacity="1" stroke="none" vectornator:layerName="path"/>
</g>
</svg>
