<?xml version="1.0" encoding="UTF-8" standalone="no"?>
<!DOCTYPE svg PUBLIC "-//W3C//DTD SVG 1.1//EN" "http://www.w3.org/Graphics/SVG/1.1/DTD/svg11.dtd">
<!-- Created with Vectornator (http://vectornator.io/) -->
<svg height="100%" stroke-miterlimit="10" style="fill-rule:nonzero;clip-rule:evenodd;stroke-linecap:round;stroke-linejoin:round;" version="1.1" viewBox="0 0 16 16" width="100%" xml:space="preserve" xmlns="http://www.w3.org/2000/svg" xmlns:vectornator="http://vectornator.io" xmlns:xlink="http://www.w3.org/1999/xlink">
<defs/>
<g id="Untitled" vectornator:layerName="Untitled">
<path d="M11.19 12.195C13.206 11.955 14.96 10.72 15.18 9.592C15.528 7.814 15.5 5.253 15.5 5.253C15.5 1.783 13.214 0.765 13.214 0.765C12.062 0.238 10.083 0.017 8.027 0L7.977 0C5.92 0.017 3.942 0.238 2.79 0.765C2.79 0.765 0.505 1.782 0.505 5.253L0.503 5.915C0.499 6.555 0.496 7.265 0.514 8.006C0.597 11.4 1.14 14.746 4.294 15.576C5.748 15.959 6.997 16.039 8.003 15.984C9.826 15.884 10.85 15.337 10.85 15.337L10.79 14.02C10.79 14.02 9.487 14.43 8.023 14.38C6.573 14.33 5.043 14.224 4.808 12.452C4.78563 12.2876 4.7746 12.1219 4.775 11.956C4.775 11.956 6.199 12.302 8.003 12.384C9.106 12.434 10.14 12.32 11.191 12.195L11.19 12.195ZM12.803 9.725L11.13 9.725L11.13 5.645C11.13 4.786 10.766 4.35 10.039 4.35C9.235 4.35 8.832 4.867 8.832 5.891L8.832 8.124L7.168 8.124L7.168 5.89C7.168 4.866 6.765 4.349 5.961 4.349C5.234 4.349 4.87 4.785 4.87 5.645L4.87 9.724L3.197 9.724L3.197 5.522C3.197 4.663 3.417 3.981 3.857 3.476C4.313 2.971 4.909 2.712 5.65 2.712C6.506 2.712 7.154 3.04 7.583 3.695L8 4.39L8.417 3.695C8.846 3.04 9.494 2.712 10.351 2.712C11.091 2.712 11.687 2.971 12.142 3.476C12.584 3.981 12.803 4.663 12.803 5.522C12.803 5.522 12.803 9.725 12.803 9.725Z" fill="black" fill-rule="nonzero" opacity="1" stroke="none" vectornator:layerName="path"/>
</g>
</svg>
