<?xml version="1.0" encoding="UTF-8" standalone="no"?>
<!DOCTYPE svg PUBLIC "-//W3C//DTD SVG 1.1//EN" "http://www.w3.org/Graphics/SVG/1.1/DTD/svg11.dtd">
<!-- Created with Vectornator (http://vectornator.io/) -->
<svg height="100%" stroke-miterlimit="10" style="fill-rule:nonzero;clip-rule:evenodd;stroke-linecap:round;stroke-linejoin:round;" version="1.1" viewBox="0 0 16 16" width="100%" xml:space="preserve" xmlns="http://www.w3.org/2000/svg" xmlns:vectornator="http://vectornator.io" xmlns:xlink="http://www.w3.org/1999/xlink">
<defs/>
<g id="Untitled" vectornator:layerName="Untitled">
<path d="M0 1.146C0 0.513 0.526 0 1.175 0L14.825 0C15.474 0 16 0.513 16 1.146L16 14.854C16 15.487 15.474 16 14.825 16L1.175 16C0.526 16 0 15.487 0 14.854L0 1.146ZM4.943 13.394L4.943 6.169L2.542 6.169L2.542 13.394L4.943 13.394ZM3.743 5.182C4.58 5.182 5.101 4.628 5.101 3.934C5.086 3.225 4.581 2.686 3.759 2.686C2.937 2.686 2.4 3.226 2.4 3.934C2.4 4.628 2.921 5.182 3.727 5.182C3.727 5.182 3.743 5.182 3.743 5.182ZM8.651 13.394L8.651 9.359C8.651 9.143 8.667 8.927 8.731 8.773C8.904 8.342 9.299 7.895 9.963 7.895C10.832 7.895 11.179 8.557 11.179 9.529L11.179 13.394L13.58 13.394L13.58 9.25C13.58 7.03 12.396 5.998 10.816 5.998C9.542 5.998 8.971 6.698 8.651 7.191L8.651 7.216L8.635 7.216C8.64031 7.20765 8.64564 7.19932 8.651 7.191L8.651 6.169L6.251 6.169C6.281 6.847 6.251 13.394 6.251 13.394L8.651 13.394Z" fill="black" fill-rule="nonzero" opacity="1" stroke="none" vectornator:layerName="path"/>
</g>
</svg>
